<?xml version="1.0" standalone="no"?>
<!DOCTYPE svg PUBLIC "-//W3C//DTD SVG 20010904//EN"
 "http://www.w3.org/TR/2001/REC-SVG-20010904/DTD/svg10.dtd">
<svg version="1.0" xmlns="http://www.w3.org/2000/svg"
 width="267.000000pt" height="189.000000pt" viewBox="0 0 267.000000 189.000000"
 preserveAspectRatio="xMidYMid meet">

<g transform="translate(0.000000,189.000000) scale(0.100000,-0.100000)"
fill="#000000" stroke="none">
<path d="M510 1055 c0 -16 6 -25 15 -25 20 0 20 0 -20 -112 l-34 -98 34 0 c29
0 36 4 41 25 6 24 10 26 58 23 44 -3 51 -6 54 -25 3 -19 10 -23 38 -23 19 0
34 3 34 7 0 5 -18 63 -41 130 l-41 123 -69 0 c-67 0 -69 -1 -69 -25z m119
-117 c1 -13 -7 -18 -29 -18 -28 0 -30 2 -24 28 4 15 11 38 17 52 l9 25 13 -35
c8 -19 14 -43 14 -52z"/>
<path d="M1114 1060 c-93 -20 -132 -108 -84 -188 24 -40 54 -52 126 -52 50 0
54 2 54 24 0 23 -4 24 -46 23 -37 -2 -49 2 -65 22 -19 24 -24 56 -13 86 10 25
59 46 93 39 28 -6 31 -4 31 19 0 21 -5 25 -33 29 -18 2 -47 1 -63 -2z"/>
<path d="M750 969 c0 -87 1 -92 29 -120 26 -25 37 -29 86 -29 46 0 60 4 80 25
23 22 25 32 25 120 l0 95 -32 0 -33 0 3 -56 c5 -76 -5 -122 -29 -135 -16 -8
-25 -7 -40 7 -16 14 -19 31 -19 101 l0 83 -35 0 -35 0 0 -91z"/>
<path d="M1240 1035 c0 -21 5 -25 30 -25 l30 0 0 -95 0 -95 30 0 30 0 0 95 0
95 30 0 c25 0 30 4 30 25 0 25 -1 25 -90 25 -89 0 -90 0 -90 -25z"/>
<path d="M1450 940 l0 -120 35 0 35 0 0 120 0 120 -35 0 -35 0 0 -120z"/>
<path d="M1601 1034 c-57 -48 -58 -136 -1 -186 25 -24 39 -28 86 -28 50 0 59
3 90 34 29 29 34 41 34 80 0 88 -38 126 -129 126 -39 0 -56 -6 -80 -26z m120
-33 c18 -14 24 -29 24 -61 0 -32 -6 -47 -24 -61 -29 -24 -43 -24 -71 -1 -33
27 -33 97 -1 123 29 24 43 24 72 0z"/>
<path d="M1850 940 l0 -120 30 0 29 0 3 75 3 76 38 -76 c38 -74 39 -75 78 -75
l39 0 0 120 0 120 -30 0 -29 0 -3 -72 -3 -73 -38 73 c-37 71 -39 72 -78 72
l-39 0 0 -120z"/>
<path d="M2122 888 c-27 -27 -6 -68 35 -68 29 0 48 33 33 60 -12 22 -49 27
-68 8z"/>
</g>
</svg>
